<mxfile host="Electron" modified="2023-09-05T10:42:31.213Z" agent="Mozilla/5.0 (X11; Linux x86_64) AppleWebKit/537.36 (KHTML, like Gecko) draw.io/21.6.8 Chrome/114.0.5735.134 Electron/25.6.0 Safari/537.36" etag="vDoI-EaLF40IGNXrii1d" version="21.6.8" type="device">
  <diagram name="Страница — 1" id="flMHft7aRPEmoyKZwruH">
    <mxGraphModel dx="1434" dy="838" grid="0" gridSize="10" guides="1" tooltips="1" connect="1" arrows="1" fold="1" page="1" pageScale="1" pageWidth="827" pageHeight="1169" math="0" shadow="0">
      <root>
        <mxCell id="0" />
        <mxCell id="1" parent="0" />
        <mxCell id="vGkDmQzbaY5o0FN3pHR2-20" style="edgeStyle=orthogonalEdgeStyle;rounded=0;orthogonalLoop=1;jettySize=auto;html=1;exitX=0;exitY=0.5;exitDx=0;exitDy=0;entryX=0.5;entryY=0;entryDx=0;entryDy=0;endArrow=none;endFill=0;" edge="1" parent="1" source="vGkDmQzbaY5o0FN3pHR2-1" target="vGkDmQzbaY5o0FN3pHR2-14">
          <mxGeometry relative="1" as="geometry" />
        </mxCell>
        <mxCell id="vGkDmQzbaY5o0FN3pHR2-21" style="edgeStyle=orthogonalEdgeStyle;rounded=0;orthogonalLoop=1;jettySize=auto;html=1;exitX=0.5;exitY=1;exitDx=0;exitDy=0;endArrow=none;endFill=0;" edge="1" parent="1" source="vGkDmQzbaY5o0FN3pHR2-1" target="vGkDmQzbaY5o0FN3pHR2-2">
          <mxGeometry relative="1" as="geometry" />
        </mxCell>
        <mxCell id="vGkDmQzbaY5o0FN3pHR2-1" value="GeometryDash client" style="rounded=0;whiteSpace=wrap;html=1;fillColor=#d5e8d4;strokeColor=#82b366;" vertex="1" parent="1">
          <mxGeometry x="341" y="140" width="145" height="60" as="geometry" />
        </mxCell>
        <mxCell id="vGkDmQzbaY5o0FN3pHR2-11" style="edgeStyle=orthogonalEdgeStyle;rounded=0;orthogonalLoop=1;jettySize=auto;html=1;exitX=1;exitY=0.5;exitDx=0;exitDy=0;entryX=0;entryY=0.5;entryDx=0;entryDy=0;endArrow=none;endFill=0;" edge="1" parent="1" source="vGkDmQzbaY5o0FN3pHR2-2" target="vGkDmQzbaY5o0FN3pHR2-4">
          <mxGeometry relative="1" as="geometry" />
        </mxCell>
        <mxCell id="vGkDmQzbaY5o0FN3pHR2-15" style="edgeStyle=orthogonalEdgeStyle;rounded=0;orthogonalLoop=1;jettySize=auto;html=1;exitX=0.5;exitY=1;exitDx=0;exitDy=0;entryX=0.5;entryY=0;entryDx=0;entryDy=0;" edge="1" parent="1" source="vGkDmQzbaY5o0FN3pHR2-2" target="vGkDmQzbaY5o0FN3pHR2-12">
          <mxGeometry relative="1" as="geometry" />
        </mxCell>
        <mxCell id="vGkDmQzbaY5o0FN3pHR2-16" style="edgeStyle=orthogonalEdgeStyle;rounded=0;orthogonalLoop=1;jettySize=auto;html=1;exitX=0;exitY=0.5;exitDx=0;exitDy=0;entryX=1;entryY=0.5;entryDx=0;entryDy=0;" edge="1" parent="1" source="vGkDmQzbaY5o0FN3pHR2-2" target="vGkDmQzbaY5o0FN3pHR2-14">
          <mxGeometry relative="1" as="geometry" />
        </mxCell>
        <mxCell id="vGkDmQzbaY5o0FN3pHR2-2" value="GD2Spring server" style="rounded=0;whiteSpace=wrap;html=1;" vertex="1" parent="1">
          <mxGeometry x="341" y="261" width="145" height="58" as="geometry" />
        </mxCell>
        <mxCell id="vGkDmQzbaY5o0FN3pHR2-4" value="Database&lt;br&gt;(PostgreSQL)" style="rounded=0;whiteSpace=wrap;html=1;fillColor=#dae8fc;strokeColor=#6c8ebf;" vertex="1" parent="1">
          <mxGeometry x="560" y="260" width="120" height="60" as="geometry" />
        </mxCell>
        <mxCell id="vGkDmQzbaY5o0FN3pHR2-9" value="S3 Cloud Storage&lt;br&gt;(MinIO)" style="rounded=0;whiteSpace=wrap;html=1;fillColor=#dae8fc;strokeColor=#6c8ebf;" vertex="1" parent="1">
          <mxGeometry x="120" y="384" width="120" height="60" as="geometry" />
        </mxCell>
        <mxCell id="vGkDmQzbaY5o0FN3pHR2-12" value="Message Queue&lt;br&gt;(RabbitMQ)&lt;br&gt;&lt;br&gt;Used for logs" style="rounded=0;whiteSpace=wrap;html=1;fillColor=#ffe6cc;strokeColor=#d79b00;" vertex="1" parent="1">
          <mxGeometry x="354" y="380" width="119" height="79" as="geometry" />
        </mxCell>
        <mxCell id="vGkDmQzbaY5o0FN3pHR2-17" style="edgeStyle=orthogonalEdgeStyle;rounded=0;orthogonalLoop=1;jettySize=auto;html=1;exitX=0.5;exitY=1;exitDx=0;exitDy=0;endArrow=none;endFill=0;" edge="1" parent="1" source="vGkDmQzbaY5o0FN3pHR2-14" target="vGkDmQzbaY5o0FN3pHR2-9">
          <mxGeometry relative="1" as="geometry" />
        </mxCell>
        <mxCell id="vGkDmQzbaY5o0FN3pHR2-14" value="GD2Spring backup storage" style="rounded=0;whiteSpace=wrap;html=1;" vertex="1" parent="1">
          <mxGeometry x="120" y="260" width="120" height="60" as="geometry" />
        </mxCell>
      </root>
    </mxGraphModel>
  </diagram>
</mxfile>
